<svg width="304.000000" height="215.000000" viewBox="0 0 304 215" fill="none"
	xmlns="http://www.w3.org/2000/svg"
	xmlns:xlink="http://www.w3.org/1999/xlink">
	<desc>
		Created with Pixso.
	</desc>
	<defs>
		<clipPath id="clip31_2221">
			<rect id="Users-GetStarted" width="304.000000" height="214.728394" transform="translate(-0.500000 0.000000)" fill="white" fill-opacity="0"/>
		</clipPath>
	</defs>
	<g clip-path="url(#clip31_2221)">
		<g opacity="0.100000">
			<path id="path" d="M298.34 171.56C290.81 186.65 275.52 196.74 259.67 203.39C246.92 208.71 233.64 212.15 219.85 213.71C217.23 214.01 214.59 214.24 211.95 214.41C205.18 214.84 198.42 214.83 191.66 214.39C187.59 214.13 183.55 213.71 179.51 213.13C165.42 211.13 151.88 207.31 138.89 201.65C135.16 200.02 131.51 198.24 127.93 196.3C121.94 193.08 116.23 189.46 110.79 185.42C109.59 184.53 108.4 183.62 107.23 182.69L106.75 182.31C105.82 181.57 104.91 180.81 103.99 180.08C102.44 178.83 100.81 177.69 99.09 176.67C98.98 176.61 98.86 176.54 98.74 176.48C98.42 176.3 98.1 176.13 97.77 175.97C97.09 175.64 96.4 175.34 95.69 175.08C92.42 173.87 88.91 173.43 85.35 173.5C84.76 173.5 84.17 173.54 83.58 173.58C82.75 173.64 81.92 173.72 81.1 173.82L80.79 173.86C78.15 174.23 75.55 174.77 72.98 175.49C69.03 176.59 65.15 177.97 61.25 179.21C59.59 179.74 57.93 180.25 56.25 180.7L55.88 180.8C53.5 181.45 51.08 181.94 48.62 182.28C42.99 182.97 37.45 182.54 32.01 180.98L31.82 180.92L31.47 180.83L31 180.68C30.21 180.44 29.42 180.17 28.64 179.89L28.16 179.71C27.41 179.43 26.67 179.12 25.94 178.8L25.47 178.59C24.72 178.25 23.98 177.89 23.25 177.51C22.99 177.38 22.73 177.23 22.48 177.1C21.71 176.68 20.95 176.24 20.21 175.78C19.42 175.3 18.65 174.79 17.9 174.26C17.55 174.02 17.21 173.77 16.87 173.51C14.91 172.06 13.08 170.45 11.38 168.71C11.29 168.62 11.2 168.52 11.11 168.43C10.66 167.96 10.22 167.48 9.79 166.98C9.63 166.8 9.47 166.62 9.32 166.43C8.81 165.83 8.32 165.21 7.84 164.59C7.77 164.49 7.7 164.4 7.64 164.31C5.69 161.7 4.1 158.9 2.85 155.92C2.81 155.82 2.78 155.73 2.74 155.64C2.37 154.7 2.02 153.73 1.71 152.76C1.58 152.35 1.46 151.93 1.35 151.53C1.32 151.4 1.28 151.28 1.25 151.16C-0.32 145.18 -0.49 138.96 -0.49 132.78C-0.49 132.06 -0.49 131.34 -0.49 130.62C-0.45 120.62 -0.29 110.45 1.23 100.59C1.23 100.52 1.25 100.45 1.26 100.38C1.77 97.06 2.46 93.77 3.33 90.52C4.25 87.11 5.41 83.78 6.82 80.53C10.32 72.55 15.4 65.29 21.05 58.55C27.85 50.45 35.65 42.98 44.33 36.81C45.58 35.92 46.84 35.06 48.12 34.23L48.71 33.85C48.92 33.72 49.13 33.57 49.34 33.46C49.76 33.18 50.19 32.92 50.62 32.66L51.1 32.37L52.02 31.82L52.3 31.66L52.79 31.39L53.28 31.11C53.84 30.79 54.42 30.47 55 30.16C57.47 28.82 60.01 27.59 62.61 26.48C63.37 26.15 64.14 25.84 64.92 25.53C68.44 24.14 72.04 22.99 75.73 22.09C77.09 21.76 78.46 21.46 79.84 21.21C81.46 20.9 83.1 20.65 84.74 20.45C87.36 20.13 89.98 19.94 92.62 19.88C111.13 19.44 129.84 25.3 144.35 36.51C150.13 40.98 155.33 46.27 161.83 49.7C167.5 52.68 174.13 53.92 180.2 51.57C185.22 49.63 188.49 48.67 194.12 48.96C205.85 49.61 217.22 51.91 228.23 55.89C228.67 56.05 229.12 56.21 229.56 56.37C258.1 66.98 282.65 88.05 295.4 115.13C295.74 115.84 296.07 116.56 296.39 117.29C303.99 134.53 306.74 154.75 298.34 171.56Z" fill="#FAD427" fill-opacity="1.000000" fill-rule="nonzero"/>
		</g>
		<g opacity="0.100000">
			<path id="path" d="M56.24 76.34L56.24 180.71L55.87 180.81C53.49 181.46 51.07 181.95 48.61 182.28C42.98 182.98 37.44 182.55 32 180.98L31.81 180.93L31.46 180.83L30.99 180.69C30.2 180.45 29.41 180.18 28.63 179.89L28.16 179.72C27.4 179.43 26.66 179.13 25.94 178.8L25.46 178.6C24.71 178.25 23.97 177.89 23.24 177.51C22.98 177.38 22.72 177.24 22.47 177.1C21.7 176.69 20.94 176.25 20.2 175.79C19.42 175.3 18.65 174.79 17.89 174.27C17.55 174.02 17.2 173.78 16.86 173.52C14.9 172.06 13.07 170.46 11.37 168.71C11.28 168.62 11.19 168.53 11.1 168.44C10.65 167.96 10.21 167.48 9.78 166.99C9.62 166.81 9.46 166.63 9.31 166.44C8.8 165.84 8.31 165.22 7.84 164.59C7.76 164.5 7.7 164.41 7.63 164.32C5.68 161.71 4.09 158.91 2.85 155.92C2.81 155.83 2.77 155.74 2.74 155.64C2.36 154.7 2.01 153.74 1.7 152.76C1.57 152.36 1.45 151.94 1.34 151.53C1.31 151.41 1.27 151.28 1.24 151.16C-0.32 145.18 -0.5 138.97 -0.5 132.78C-0.5 132.06 -0.5 131.34 -0.5 130.62C-0.46 120.62 -0.3 110.45 1.22 100.59C1.22 100.52 1.24 100.45 1.25 100.39C1.76 97.06 2.45 93.78 3.32 90.53L32.28 90.53L32.28 76.34L38.05 76.34L38.05 64.95L50.47 64.95L50.47 76.34L56.24 76.34Z" fill="#FAD427" fill-opacity="1.000000" fill-rule="nonzero"/>
		</g>
		<g opacity="0.100000">
			<path id="path" d="M298.34 171.56C290.81 186.65 275.52 196.74 259.67 203.39C246.92 208.71 233.64 212.15 219.85 213.71C217.23 214.01 214.59 214.24 211.95 214.41C205.18 214.84 198.42 214.83 191.66 214.39C187.59 214.13 183.55 213.71 179.51 213.13C165.42 211.13 151.88 207.31 138.89 201.65C135.16 200.02 131.51 198.24 127.93 196.3C121.94 193.08 116.23 189.46 110.79 185.42C109.59 184.53 108.4 183.62 107.23 182.69L106.75 182.31C105.82 181.57 104.91 180.81 103.99 180.08C102.44 178.83 100.81 177.69 99.09 176.67C98.98 176.61 98.86 176.54 98.74 176.48C98.42 176.3 98.1 176.13 97.77 175.97C97.09 175.64 96.4 175.34 95.69 175.08L95.69 132.39L148.3 132.39L148.3 141.89L171.39 141.89L171.39 72.37L198.57 72.37L198.57 100.17L212.02 100.17L212.02 83.71L223.12 83.71L223.12 66.13L228.23 66.13L228.23 55.89C228.67 56.05 229.11 56.21 229.55 56.37L229.55 66.13L234.52 66.13L234.52 83.72L245.61 83.72L245.61 100.18L261.98 100.18L261.98 162.89L287.99 162.89L287.99 117.29L296.38 117.29C303.99 134.53 306.74 154.75 298.34 171.56Z" fill="#FAD427" fill-opacity="1.000000" fill-rule="nonzero"/>
		</g>
		<g opacity="0.100000">
			<rect id="rect" x="179.520386" y="82.837158" width="12.147644" height="11.794182" fill="#FAD427" fill-opacity="1.000000"/>
		</g>
		<g opacity="0.100000">
			<rect id="rect" x="179.520386" y="107.284424" width="12.147644" height="11.794189" fill="#FAD427" fill-opacity="1.000000"/>
		</g>
		<g opacity="0.100000">
			<rect id="rect" x="179.520386" y="131.734131" width="12.147644" height="11.794174" fill="#FAD427" fill-opacity="1.000000"/>
		</g>
		<g opacity="0.100000">
			<rect id="rect" x="179.520386" y="156.184082" width="12.147644" height="11.794174" fill="#FAD427" fill-opacity="1.000000"/>
		</g>
		<g opacity="0.100000">
			<rect id="rect" x="179.520386" y="180.631348" width="12.147644" height="11.794174" fill="#FAD427" fill-opacity="1.000000"/>
		</g>
		<g opacity="0.100000">
			<path id="path" d="M191.66 205.07L191.66 214.39C187.6 214.12 183.55 213.7 179.52 213.13L179.52 205.07L191.66 205.07Z" fill="#FAD427" fill-opacity="1.000000" fill-rule="nonzero"/>
		</g>
		<g opacity="0.100000">
			<rect id="rect" x="99.700317" y="147.635010" width="42.521004" height="5.342468" fill="#FAD427" fill-opacity="1.000000"/>
		</g>
		<g opacity="0.100000">
			<rect id="rect" x="99.700317" y="163.860840" width="42.521004" height="5.342468" fill="#FAD427" fill-opacity="1.000000"/>
		</g>
		<g opacity="0.100000">
			<path id="path" d="M142.22 180.08L142.22 185.42L110.79 185.42C109.59 184.53 108.41 183.62 107.23 182.69L106.75 182.31C105.83 181.57 104.92 180.81 103.99 180.08L142.22 180.08Z" fill="#FAD427" fill-opacity="1.000000" fill-rule="nonzero"/>
		</g>
		<g opacity="0.100000">
			<path id="path" d="M142.22 196.3L142.22 201.65L138.9 201.65C135.17 200.02 131.51 198.24 127.93 196.3L142.22 196.3Z" fill="#FAD427" fill-opacity="1.000000" fill-rule="nonzero"/>
		</g>
		<g opacity="0.100000">
			<rect id="rect" x="211.957520" y="114.773682" width="7.906616" height="7.676544" fill="#FAD427" fill-opacity="1.000000"/>
		</g>
		<g opacity="0.100000">
			<rect id="rect" x="40.728271" y="78.997559" width="7.906608" height="7.676537" fill="#FAD427" fill-opacity="1.000000"/>
		</g>
		<g opacity="0.100000">
			<rect id="rect" x="40.728271" y="96.833496" width="7.906608" height="7.676544" fill="#FAD427" fill-opacity="1.000000"/>
		</g>
		<g opacity="0.100000">
			<rect id="rect" x="40.728271" y="114.666504" width="7.906608" height="7.676537" fill="#FAD427" fill-opacity="1.000000"/>
		</g>
		<g opacity="0.100000">
			<rect id="rect" x="40.728271" y="132.502197" width="7.906608" height="7.676529" fill="#FAD427" fill-opacity="1.000000"/>
		</g>
		<g opacity="0.100000">
			<rect id="rect" x="40.728271" y="150.337891" width="7.906608" height="7.676544" fill="#FAD427" fill-opacity="1.000000"/>
		</g>
		<g opacity="0.100000">
			<rect id="rect" x="40.728271" y="168.170898" width="7.906608" height="7.676544" fill="#FAD427" fill-opacity="1.000000"/>
		</g>
		<g opacity="0.100000">
			<rect id="rect" x="242.146606" y="114.773682" width="7.906601" height="7.676544" fill="#FAD427" fill-opacity="1.000000"/>
		</g>
		<g opacity="0.100000">
			<rect id="rect" x="211.957520" y="133.710449" width="7.906616" height="7.676536" fill="#FAD427" fill-opacity="1.000000"/>
		</g>
		<g opacity="0.100000">
			<rect id="rect" x="242.146606" y="133.710449" width="7.906601" height="7.676536" fill="#FAD427" fill-opacity="1.000000"/>
		</g>
		<g opacity="0.100000">
			<rect id="rect" x="211.957520" y="152.649902" width="7.906616" height="7.676544" fill="#FAD427" fill-opacity="1.000000"/>
		</g>
		<g opacity="0.100000">
			<rect id="rect" x="242.146606" y="152.649902" width="7.906601" height="7.676544" fill="#FAD427" fill-opacity="1.000000"/>
		</g>
		<g opacity="0.100000">
			<rect id="rect" x="211.957520" y="171.589355" width="7.906616" height="7.676544" fill="#FAD427" fill-opacity="1.000000"/>
		</g>
		<g opacity="0.100000">
			<rect id="rect" x="242.146606" y="171.589355" width="7.906601" height="7.676544" fill="#FAD427" fill-opacity="1.000000"/>
		</g>
		<g opacity="0.100000">
			<rect id="rect" x="211.957520" y="190.526367" width="7.906616" height="7.676544" fill="#FAD427" fill-opacity="1.000000"/>
		</g>
		<g opacity="0.100000">
			<rect id="rect" x="242.146606" y="190.526367" width="7.906601" height="7.676544" fill="#FAD427" fill-opacity="1.000000"/>
		</g>
		<g opacity="0.100000">
			<path id="polygon" d="M211.95 214.41L211.95 209.46L219.86 209.46L219.86 213.71L211.95 214.41Z" fill="#FAD427" fill-opacity="1.000000" fill-rule="nonzero"/>
		</g>
		<g opacity="0.100000">
			<path id="path" d="M1.22 100.39L1.22 104.79L31.46 104.79L31.46 100.39L1.22 100.39ZM3.92 104.52L1.7 104.52L1.7 100.67L3.92 100.67L3.92 104.52ZM6.61 104.52L4.39 104.52L4.39 100.67L6.61 100.67L6.61 104.52ZM9.3 104.52L7.08 104.52L7.08 100.67L9.3 100.67L9.3 104.52ZM12 104.52L9.78 104.52L9.78 100.67L12 100.67L12 104.52ZM14.69 104.52L12.47 104.52L12.47 100.67L14.69 100.67L14.69 104.52ZM17.38 104.52L15.16 104.52L15.16 100.67L17.38 100.67L17.38 104.52ZM20.08 104.52L17.86 104.52L17.86 100.67L20.08 100.67L20.08 104.52ZM22.77 104.52L20.55 104.52L20.55 100.67L22.77 100.67L22.77 104.52ZM25.46 104.52L23.24 104.52L23.24 100.67L25.46 100.67L25.46 104.52ZM28.16 104.52L25.94 104.52L25.94 100.67L28.16 100.67L28.16 104.52ZM30.99 104.52L28.63 104.52L28.63 100.67L30.99 100.67L30.99 104.52Z" fill="#FAD427" fill-opacity="1.000000" fill-rule="nonzero"/>
		</g>
		<g opacity="0.100000">
			<path id="path" d="M1.22 113.18L1.22 117.57L31.46 117.57L31.46 113.18L1.22 113.18ZM3.92 117.29L1.7 117.29L1.7 113.45L3.92 113.45L3.92 117.29ZM6.61 117.29L4.39 117.29L4.39 113.45L6.61 113.45L6.61 117.29ZM9.3 117.29L7.08 117.29L7.08 113.45L9.3 113.45L9.3 117.29ZM12 117.29L9.78 117.29L9.78 113.45L12 113.45L12 117.29ZM14.69 117.29L12.47 117.29L12.47 113.45L14.69 113.45L14.69 117.29ZM17.38 117.29L15.16 117.29L15.16 113.45L17.38 113.45L17.38 117.29ZM20.08 117.29L17.86 117.29L17.86 113.45L20.08 113.45L20.08 117.29ZM22.77 117.29L20.55 117.29L20.55 113.45L22.77 113.45L22.77 117.29ZM25.46 117.29L23.24 117.29L23.24 113.45L25.46 113.45L25.46 117.29ZM28.16 117.29L25.94 117.29L25.94 113.45L28.16 113.45L28.16 117.29ZM30.99 117.29L28.63 117.29L28.63 113.45L30.99 113.45L30.99 117.29Z" fill="#FAD427" fill-opacity="1.000000" fill-rule="nonzero"/>
		</g>
		<g opacity="0.100000">
			<path id="path" d="M1.22 125.96L1.22 130.35L31.46 130.35L31.46 125.96L1.22 125.96ZM3.92 130.08L1.7 130.08L1.7 126.24L3.92 126.24L3.92 130.08ZM6.61 130.08L4.39 130.08L4.39 126.24L6.61 126.24L6.61 130.08ZM9.3 130.08L7.08 130.08L7.08 126.24L9.3 126.24L9.3 130.08ZM12 130.08L9.78 130.08L9.78 126.24L12 126.24L12 130.08ZM14.69 130.08L12.47 130.08L12.47 126.24L14.69 126.24L14.69 130.08ZM17.38 130.08L15.16 130.08L15.16 126.24L17.38 126.24L17.38 130.08ZM20.08 130.08L17.86 130.08L17.86 126.24L20.08 126.24L20.08 130.08ZM22.77 130.08L20.55 130.08L20.55 126.24L22.77 126.24L22.77 130.08ZM25.46 130.08L23.24 130.08L23.24 126.24L25.46 126.24L25.46 130.08ZM28.16 130.08L25.94 130.08L25.94 126.24L28.16 126.24L28.16 130.08ZM30.99 130.08L28.63 130.08L28.63 126.24L30.99 126.24L30.99 130.08Z" fill="#FAD427" fill-opacity="1.000000" fill-rule="nonzero"/>
		</g>
		<g opacity="0.100000">
			<path id="path" d="M1.22 138.74L1.22 143.14L31.46 143.14L31.46 138.74L1.22 138.74ZM3.92 142.87L1.7 142.87L1.7 139.01L3.92 139.01L3.92 142.87ZM6.61 142.87L4.39 142.87L4.39 139.01L6.61 139.01L6.61 142.87ZM9.3 142.87L7.08 142.87L7.08 139.01L9.3 139.01L9.3 142.87ZM12 142.87L9.78 142.87L9.78 139.01L12 139.01L12 142.87ZM14.69 142.87L12.47 142.87L12.47 139.01L14.69 139.01L14.69 142.87ZM17.38 142.87L15.16 142.87L15.16 139.01L17.38 139.01L17.38 142.87ZM20.08 142.87L17.86 142.87L17.86 139.01L20.08 139.01L20.08 142.87ZM22.77 142.87L20.55 142.87L20.55 139.01L22.77 139.01L22.77 142.87ZM25.46 142.87L23.24 142.87L23.24 139.01L25.46 139.01L25.46 142.87ZM28.16 142.87L25.94 142.87L25.94 139.01L28.16 139.01L28.16 142.87ZM30.99 142.87L28.63 142.87L28.63 139.01L30.99 139.01L30.99 142.87Z" fill="#FAD427" fill-opacity="1.000000" fill-rule="nonzero"/>
		</g>
		<g opacity="0.100000">
			<path id="path" d="M1.34 151.53C1.45 151.95 1.57 152.36 1.7 152.77L1.7 151.81L3.92 151.81L3.92 155.66L2.73 155.66C2.77 155.75 2.8 155.85 2.84 155.94L31.48 155.94L31.48 151.53L1.34 151.53ZM6.61 155.66L4.39 155.66L4.39 151.81L6.61 151.81L6.61 155.66ZM9.3 155.66L7.08 155.66L7.08 151.81L9.3 151.81L9.3 155.66ZM12 155.66L9.78 155.66L9.78 151.81L12 151.81L12 155.66ZM14.69 155.66L12.47 155.66L12.47 151.81L14.69 151.81L14.69 155.66ZM17.38 155.66L15.16 155.66L15.16 151.81L17.38 151.81L17.38 155.66ZM20.08 155.66L17.86 155.66L17.86 151.81L20.08 151.81L20.08 155.66ZM22.77 155.66L20.55 155.66L20.55 151.81L22.77 151.81L22.77 155.66ZM25.46 155.66L23.24 155.66L23.24 151.81L25.46 151.81L25.46 155.66ZM28.16 155.66L25.94 155.66L25.94 151.81L28.16 151.81L28.16 155.66ZM30.99 155.66L28.63 155.66L28.63 151.81L30.99 151.81L30.99 155.66Z" fill="#FAD427" fill-opacity="1.000000" fill-rule="nonzero"/>
		</g>
		<g opacity="0.100000">
			<path id="path" d="M7.63 164.32C7.69 164.41 7.76 164.5 7.83 164.59L9.3 164.59L9.3 166.44C9.46 166.63 9.62 166.81 9.78 166.99L9.78 164.6L12 164.6L12 168.45L11.1 168.45C11.19 168.54 11.27 168.63 11.37 168.73L31.46 168.73L31.46 164.32L7.63 164.32ZM14.69 168.45L12.47 168.45L12.47 164.59L14.69 164.59L14.69 168.45ZM17.38 168.45L15.16 168.45L15.16 164.59L17.38 164.59L17.38 168.45ZM20.08 168.45L17.86 168.45L17.86 164.59L20.08 164.59L20.08 168.45ZM22.77 168.45L20.55 168.45L20.55 164.59L22.77 164.59L22.77 168.45ZM25.46 168.45L23.24 168.45L23.24 164.59L25.46 164.59L25.46 168.45ZM28.16 168.45L25.94 168.45L25.94 164.59L28.16 164.59L28.16 168.45ZM30.99 168.45L28.63 168.45L28.63 164.59L30.99 164.59L30.99 168.45Z" fill="#FAD427" fill-opacity="1.000000" fill-rule="nonzero"/>
		</g>
		<g opacity="0.100000">
			<path id="path" d="M22.47 177.1C22.72 177.24 22.98 177.38 23.24 177.51L23.24 177.38L25.46 177.38L25.46 178.6L25.94 178.8L25.94 177.38L28.16 177.38L28.16 179.72L28.63 179.89L28.63 177.38L30.99 177.38L30.99 180.68L31.46 180.82L31.46 177.1L22.47 177.1Z" fill="#FAD427" fill-opacity="1.000000" fill-rule="nonzero"/>
		</g>
		<g opacity="0.100000">
			<path id="path" d="M115.72 62.27C115.72 62.27 108.96 61.87 109.76 66.47C109.72 66.71 109.75 66.93 109.87 67.15C109.98 67.37 110.14 67.54 110.36 67.65C110.36 67.65 110.36 67.31 111.06 67.42C111.3 67.46 111.54 67.47 111.79 67.46C112.13 67.44 112.43 67.32 112.69 67.1C112.69 67.1 114.59 66.34 115.33 63.32C115.33 63.32 115.87 62.67 115.85 62.5L114.72 62.97C114.72 62.97 115.11 63.77 114.8 64.43C114.8 64.43 114.77 63 114.55 63.03C114.5 63.03 113.95 63.31 113.95 63.31C113.95 63.31 114.62 64.7 114.12 65.71C114.12 65.71 114.31 64 113.75 63.41L112.92 63.87C112.92 63.87 113.71 65.31 113.18 66.48C113.18 66.48 113.31 64.68 112.76 63.98L112.03 64.53C112.03 64.53 112.76 65.95 112.31 66.92C112.31 66.92 112.25 64.83 111.87 64.67C111.59 64.9 111.34 65.15 111.13 65.44C111.13 65.44 111.64 66.47 111.32 67.01C111.32 67.01 111.13 65.62 110.97 65.61C110.97 65.61 110.34 66.53 110.28 67.17C110.31 66.57 110.49 66.02 110.82 65.51C110.45 65.58 110.12 65.74 109.85 66C109.85 66 109.95 65.35 110.98 65.29C110.98 65.29 111.51 64.59 111.65 64.55C111.65 64.55 110.63 64.47 110.01 64.73C110.01 64.73 110.55 64.12 111.84 64.4L112.56 63.83C112.56 63.83 111.21 63.65 110.64 63.85C110.64 63.85 111.29 63.3 112.75 63.7L113.53 63.24C112.93 63.11 112.32 63.06 111.7 63.09C111.7 63.09 112.42 62.71 113.76 63.12L114.33 62.88C114.33 62.88 113.48 62.72 113.24 62.69C113.01 62.67 112.98 62.6 112.98 62.6C113.52 62.51 114.05 62.57 114.56 62.77C114.56 62.77 115.74 62.34 115.72 62.27Z" fill="#FAD427" fill-opacity="1.000000" fill-rule="nonzero"/>
		</g>
		<g opacity="0.100000">
			<path id="path" d="M97.97 84.63C97.97 84.63 95.66 90.81 100.43 91.38C100.66 91.48 100.89 91.52 101.14 91.47C101.38 91.43 101.59 91.33 101.77 91.15C101.77 91.15 101.44 91.05 101.74 90.44C101.85 90.23 101.93 90 101.99 89.77C102.06 89.45 102.03 89.13 101.88 88.83C101.88 88.83 101.67 86.85 98.9 85.3C98.9 85.3 98.41 84.61 98.24 84.58L98.38 85.78C98.38 85.78 99.28 85.64 99.85 86.11C99.85 86.11 98.43 85.74 98.39 85.96C98.39 86 98.5 86.59 98.5 86.59C98.5 86.59 100.06 86.36 100.92 87.11C100.92 87.11 99.28 86.45 98.54 86.81L98.76 87.68C98.76 87.68 100.4 87.37 101.41 88.19C101.41 88.19 99.67 87.56 98.82 87.87L99.16 88.7C99.16 88.7 100.77 88.43 101.6 89.11C101.6 89.11 99.51 88.56 99.25 88.88C99.4 89.21 99.58 89.51 99.8 89.78C99.8 89.78 100.96 89.61 101.41 90.06C101.41 90.06 99.97 89.84 99.92 89.99C99.92 89.99 100.66 90.84 101.26 91.09C100.68 90.89 100.19 90.56 99.79 90.11C99.75 90.48 99.82 90.83 100 91.15C100 91.15 99.38 90.88 99.62 89.9C99.62 89.9 99.07 89.22 99.07 89.07C99.07 89.07 98.7 90 98.79 90.66C98.79 90.66 98.33 89.97 98.98 88.86L98.62 88.03C98.62 88.03 98.05 89.23 98.09 89.82C98.09 89.82 97.74 89.06 98.54 87.81L98.32 86.96C98.02 87.48 97.8 88.03 97.65 88.61C97.65 88.61 97.48 87.83 98.26 86.7L98.18 86.11C98.18 86.11 97.78 86.85 97.69 87.07C97.6 87.29 97.53 87.29 97.53 87.29C97.59 86.75 97.8 86.28 98.14 85.86C98.14 85.86 98.05 84.63 97.97 84.63Z" fill="#FAD427" fill-opacity="1.000000" fill-rule="nonzero"/>
		</g>
		<g opacity="0.100000">
			<path id="path" d="M142.78 79.43C142.78 79.43 140.47 85.62 145.23 86.17C145.46 86.27 145.69 86.31 145.94 86.26C146.19 86.22 146.4 86.11 146.57 85.94C146.57 85.94 146.24 85.83 146.55 85.23C146.65 85.02 146.73 84.79 146.79 84.56C146.86 84.23 146.83 83.92 146.69 83.62C146.69 83.62 146.47 81.63 143.71 80.09C143.71 80.09 143.21 79.4 143.04 79.37L143.18 80.56C143.18 80.56 144.08 80.43 144.65 80.9C144.65 80.9 143.23 80.53 143.19 80.74C143.19 80.79 143.3 81.37 143.3 81.37C143.3 81.37 144.86 81.15 145.72 81.9C145.72 81.9 144.08 81.24 143.34 81.6L143.56 82.47C143.56 82.47 145.2 82.15 146.21 82.98C146.21 82.98 144.47 82.34 143.62 82.66L143.96 83.49C143.96 83.49 145.57 83.21 146.4 83.9C146.4 83.9 144.32 83.35 144.05 83.67C144.2 84 144.39 84.3 144.62 84.57C144.62 84.57 145.77 84.4 146.22 84.85C146.22 84.85 144.79 84.63 144.74 84.78C144.74 84.78 145.47 85.63 146.08 85.88C145.5 85.68 145.01 85.36 144.61 84.9C144.57 85.27 144.64 85.62 144.81 85.95C144.81 85.95 144.2 85.67 144.43 84.7C144.43 84.7 143.89 84.01 143.89 83.87C143.89 83.87 143.52 84.8 143.6 85.45C143.6 85.45 143.15 84.77 143.79 83.65L143.43 82.83C143.43 82.83 142.87 84.03 142.91 84.62C142.91 84.62 142.55 83.85 143.36 82.61L143.13 81.75C142.83 82.27 142.61 82.82 142.46 83.4C142.46 83.4 142.29 82.62 143.08 81.49L143 80.9C143 80.9 142.6 81.64 142.5 81.86C142.41 82.09 142.34 82.08 142.34 82.08C142.41 81.55 142.61 81.07 142.96 80.66C142.96 80.66 142.85 79.43 142.78 79.43Z" fill="#FAD427" fill-opacity="1.000000" fill-rule="nonzero"/>
		</g>
		<g opacity="0.100000">
			<path id="path" d="M78.73 129.93C78.73 129.93 76.42 136.11 81.19 136.67C81.42 136.78 81.65 136.81 81.9 136.77C82.14 136.73 82.35 136.62 82.53 136.45C82.53 136.45 82.2 136.34 82.5 135.74C82.61 135.52 82.69 135.3 82.75 135.07C82.82 134.74 82.79 134.43 82.64 134.13C82.64 134.13 82.43 132.14 79.66 130.6C79.66 130.6 79.17 129.9 79 129.88L79.14 131.07C79.14 131.07 80.04 130.94 80.61 131.41C80.61 131.41 79.19 131.04 79.15 131.25C79.15 131.29 79.26 131.88 79.26 131.88C79.26 131.88 80.82 131.65 81.68 132.41C81.68 132.41 80.04 131.75 79.3 132.1L79.52 132.98C79.52 132.98 81.16 132.66 82.17 133.49C82.17 133.49 80.43 132.85 79.58 133.17L79.92 134C79.92 134 81.53 133.72 82.36 134.41C82.36 134.41 80.28 133.85 80.01 134.18C80.16 134.5 80.34 134.8 80.56 135.08C80.56 135.08 81.72 134.9 82.17 135.36C82.17 135.36 80.73 135.14 80.68 135.28C80.68 135.28 81.42 136.14 82.02 136.39C81.44 136.19 80.95 135.86 80.55 135.41C80.51 135.78 80.58 136.13 80.76 136.45C80.76 136.45 80.14 136.18 80.38 135.2C80.38 135.2 79.83 134.52 79.83 134.38C79.83 134.38 79.46 135.31 79.55 135.96C79.55 135.96 79.09 135.28 79.73 134.16L79.38 133.33C79.38 133.33 78.81 134.54 78.85 135.12C78.85 135.12 78.5 134.36 79.31 133.12L79.08 132.26C78.78 132.78 78.56 133.33 78.41 133.91C78.41 133.91 78.24 133.13 79.02 132L78.94 131.41C78.94 131.41 78.54 132.15 78.45 132.37C78.36 132.59 78.29 132.59 78.29 132.59C78.35 132.05 78.56 131.58 78.9 131.16C78.9 131.16 78.81 129.93 78.73 129.93Z" fill="#FAD427" fill-opacity="1.000000" fill-rule="nonzero"/>
		</g>
		<g opacity="0.100000">
			<path id="path" d="M69.57 71.69C69.57 71.69 67.26 77.87 72.02 78.43C72.25 78.54 72.48 78.57 72.73 78.53C72.98 78.49 73.19 78.38 73.36 78.21C73.36 78.21 73.03 78.1 73.34 77.5C73.44 77.28 73.52 77.06 73.58 76.82C73.65 76.5 73.62 76.19 73.48 75.89C73.48 75.89 73.27 73.9 70.5 72.36C70.5 72.36 70 71.66 69.83 71.64L69.97 72.83C69.97 72.83 70.87 72.69 71.44 73.17C71.44 73.17 70.02 72.8 69.99 73.01C69.99 73.05 70.09 73.64 70.09 73.64C70.09 73.64 71.66 73.41 72.51 74.17C72.51 74.17 70.87 73.5 70.13 73.86L70.35 74.74C70.35 74.74 71.99 74.42 73 75.25C73 75.25 71.26 74.61 70.41 74.93L70.75 75.76C70.75 75.76 72.36 75.48 73.19 76.17C73.19 76.17 71.11 75.62 70.84 75.94C70.99 76.26 71.17 76.56 71.39 76.84C71.39 76.84 72.55 76.67 73 77.12C73 77.12 71.57 76.9 71.52 77.04C71.52 77.04 72.25 77.9 72.85 78.14C72.28 77.95 71.78 77.62 71.38 77.17C71.34 77.54 71.41 77.88 71.59 78.21C71.59 78.21 70.97 77.94 71.21 76.96C71.21 76.96 70.67 76.27 70.66 76.13C70.66 76.13 70.29 77.06 70.38 77.72C70.38 77.72 69.92 77.03 70.57 75.92L70.21 75.09C70.21 75.09 69.64 76.29 69.68 76.88C69.68 76.88 69.33 76.11 70.14 74.87L69.91 74.02C69.61 74.54 69.39 75.09 69.24 75.67C69.24 75.67 69.07 74.89 69.85 73.76L69.77 73.17C69.77 73.17 69.37 73.91 69.28 74.13C69.19 74.35 69.12 74.34 69.12 74.34C69.18 73.81 69.39 73.34 69.73 72.92C69.73 72.92 69.65 71.69 69.57 71.69Z" fill="#FAD427" fill-opacity="1.000000" fill-rule="nonzero"/>
		</g>
		<g opacity="0.100000">
			<path id="path" d="M86.7 105.33C86.7 105.33 88.48 111.66 92.71 109.45C92.96 109.42 93.17 109.31 93.35 109.14C93.52 108.97 93.63 108.76 93.67 108.52C93.67 108.52 93.34 108.62 93.23 107.96C93.19 107.72 93.12 107.5 93.03 107.27C92.9 106.97 92.69 106.73 92.39 106.56C92.39 106.56 91.04 105.06 87.85 105.35C87.85 105.35 87.04 105.06 86.88 105.13L87.71 106.03C87.71 106.03 88.36 105.41 89.11 105.48C89.11 105.48 87.72 105.97 87.82 106.16C87.85 106.2 88.28 106.62 88.28 106.62C88.28 106.62 89.42 105.55 90.57 105.69C90.57 105.69 88.84 106.07 88.45 106.78L89.15 107.37C89.15 107.37 90.3 106.19 91.62 106.3C91.62 106.3 89.82 106.75 89.31 107.49L90.08 107.98C90.08 107.98 91.22 106.85 92.32 106.95C92.32 106.95 90.3 107.68 90.27 108.08C90.58 108.27 90.91 108.41 91.25 108.51C91.25 108.51 92.1 107.72 92.72 107.83C92.72 107.83 91.42 108.46 91.47 108.6C91.47 108.6 92.57 108.88 93.21 108.74C92.62 108.91 92.03 108.92 91.43 108.77C91.62 109.09 91.88 109.34 92.22 109.51C92.22 109.51 91.55 109.62 91.17 108.7C91.17 108.7 90.31 108.44 90.22 108.33C90.22 108.33 90.47 109.29 90.93 109.78C90.93 109.78 90.16 109.47 90.02 108.2L89.23 107.73C89.23 107.73 89.49 109.02 89.86 109.48C89.86 109.48 89.12 109.05 89.04 107.59L88.35 107.02C88.42 107.61 88.56 108.19 88.79 108.75C88.79 108.75 88.19 108.2 88.16 106.84L87.74 106.41C87.74 106.41 87.85 107.23 87.91 107.47C87.96 107.7 87.91 107.74 87.91 107.74C87.65 107.27 87.53 106.77 87.57 106.23C87.57 106.23 86.77 105.28 86.7 105.33Z" fill="#FAD427" fill-opacity="1.000000" fill-rule="nonzero"/>
		</g>
		<g opacity="0.100000">
			<path id="path" d="M135.08 110.98C135.08 110.98 136.86 117.31 141.09 115.11C141.33 115.07 141.55 114.97 141.72 114.79C141.9 114.62 142.01 114.42 142.05 114.18C142.05 114.18 141.71 114.28 141.6 113.63C141.57 113.39 141.5 113.16 141.4 112.94C141.27 112.63 141.06 112.4 140.76 112.23C140.76 112.23 139.41 110.73 136.23 111.02C136.23 111.02 135.41 110.73 135.25 110.8L136.08 111.69C136.08 111.69 136.73 111.08 137.48 111.14C137.48 111.14 136.09 111.64 136.2 111.83C136.22 111.87 136.66 112.29 136.66 112.29C136.66 112.29 137.79 111.22 138.95 111.36C138.95 111.36 137.21 111.74 136.82 112.45L137.52 113.04C137.52 113.04 138.66 111.86 139.99 111.97C139.99 111.97 138.19 112.42 137.69 113.16L138.46 113.65C138.46 113.65 139.59 112.52 140.69 112.62C140.69 112.62 138.67 113.34 138.64 113.75C138.95 113.93 139.28 114.07 139.63 114.18C139.63 114.18 140.48 113.38 141.1 113.5C141.1 113.5 139.8 114.12 139.84 114.27C139.84 114.27 140.95 114.54 141.59 114.41C141 114.57 140.4 114.58 139.8 114.44C139.99 114.76 140.25 115.01 140.59 115.17C140.59 115.17 139.92 115.29 139.54 114.36C139.54 114.36 138.69 114.11 138.6 113.99C138.6 113.99 138.85 114.96 139.31 115.45C139.31 115.45 138.53 115.14 138.39 113.87L137.6 113.39C137.6 113.39 137.86 114.68 138.24 115.14C138.24 115.14 137.5 114.71 137.42 113.25L136.72 112.68C136.79 113.27 136.94 113.85 137.16 114.41C137.16 114.41 136.56 113.86 136.53 112.51L136.11 112.07C136.11 112.07 136.23 112.89 136.28 113.13C136.33 113.36 136.28 113.4 136.28 113.4C136.02 112.93 135.91 112.43 135.94 111.9C135.94 111.9 135.14 110.94 135.08 110.98Z" fill="#FAD427" fill-opacity="1.000000" fill-rule="nonzero"/>
		</g>
		<path id="path" d="M116.93 174.55C116.93 174.55 131.63 169.75 128.59 152.71L109.91 148L105.57 161.98L116.93 174.55Z" fill="#CED7E7" fill-opacity="1.000000" fill-rule="nonzero"/>
		<g opacity="0.100000">
			<path id="path" d="M105.57 161.98L116.92 174.56C116.92 174.56 131.63 169.75 128.59 152.71L105.57 161.98Z" fill="#000000" fill-opacity="1.000000" fill-rule="nonzero"/>
		</g>
		<path id="path" d="M43.77 36.11C43.77 36.11 45.75 39.24 48.47 37.68C51.18 36.11 48.58 31.79 48.58 31.79C48.58 31.79 43.38 31.09 43.77 36.11Z" fill="#FED253" fill-opacity="1.000000" fill-rule="nonzero"/>
		<g opacity="0.100000">
			<path id="path" d="M48.47 37.68C47.79 38.1 47.06 38.22 46.28 38.04C45.28 37.79 44.52 37.05 44.11 36.56C43.99 36.42 43.87 36.27 43.77 36.11C43.63 34.32 44.2 33.26 45 32.63C46.09 31.77 47.6 31.73 48.25 31.76C48.45 31.76 48.57 31.79 48.57 31.79L48.62 31.88C48.7 32.02 48.87 32.33 49.04 32.74C49.65 34.11 50.37 36.57 48.47 37.68Z" fill="#000000" fill-opacity="1.000000" fill-rule="nonzero"/>
		</g>
		<path id="path" d="M118.37 151.91L128.58 152.71L147.57 152.86L132.61 170.75C132.61 170.75 127.86 171 126.88 171.65C125.9 172.3 112.17 171.95 112.17 171.95L109.95 162.78L118.37 151.91Z" fill="#FFA2A2" fill-opacity="1.000000" fill-rule="nonzero"/>
		<g opacity="0.050000">
			<path id="path" d="M118.37 151.91L128.58 152.71L147.57 152.86L132.61 170.75C132.61 170.75 127.86 171 126.88 171.65C125.9 172.3 112.17 171.95 112.17 171.95L109.95 162.78L118.37 151.91Z" fill="#000000" fill-opacity="1.000000" fill-rule="nonzero"/>
		</g>
		<path id="path" d="M108.05 103.81L110.42 107.71L110.94 114.53C110.94 114.53 112.59 120.34 113.83 122.04C115.07 123.75 115.59 128.26 115.59 128.26C115.59 128.26 116.1 132.47 116.72 133.37C117.34 134.27 118.17 140.8 118.17 140.8C118.17 140.8 123.64 151.42 128.59 152.72C128.59 152.72 104.02 160.54 116.93 174.57C116.93 174.57 107.74 176.77 105.57 174.27C103.4 171.77 97.73 134.69 97.73 134.69L99.48 103.42L108.05 103.81Z" fill="#CED7E7" fill-opacity="1.000000" fill-rule="nonzero"/>
		<g opacity="0.050000">
			<path id="path" d="M108.05 103.81L110.42 107.71L110.94 114.53C110.94 114.53 112.59 120.34 113.83 122.04C115.07 123.75 115.59 128.26 115.59 128.26C115.59 128.26 116.1 132.47 116.72 133.37C117.34 134.27 118.17 140.8 118.17 140.8C118.17 140.8 123.64 151.42 128.59 152.72C128.59 152.72 104.02 160.54 116.93 174.57C116.93 174.57 107.74 176.77 105.57 174.27C103.4 171.77 97.73 134.69 97.73 134.69L99.48 103.42L108.05 103.81Z" fill="#000000" fill-opacity="1.000000" fill-rule="nonzero"/>
		</g>
		<path id="path" d="M78.25 65.72C77.55 69.24 77.74 72.72 78.84 76.15L75.02 86.77C75.02 86.77 45.91 71.04 48.39 67.23C49.8 65.07 49.97 59.35 49.86 54.81C49.78 51.36 49.53 48.59 49.53 48.59C49.53 48.59 85.25 52 80.49 59.91C79.41 61.72 78.66 63.66 78.25 65.72Z" fill="#FFA2A2" fill-opacity="1.000000" fill-rule="nonzero"/>
		<g opacity="0.100000">
			<path id="path" d="M80.49 59.91C79.41 61.72 78.66 63.66 78.25 65.72C76.93 66.12 75.59 66.42 74.22 66.6C72.85 66.79 71.48 66.86 70.1 66.81C68.72 66.77 67.35 66.61 66 66.34C64.65 66.06 63.33 65.68 62.05 65.19C60.76 64.69 59.53 64.1 58.35 63.4C57.17 62.7 56.06 61.91 55.03 61.02C53.99 60.14 53.04 59.17 52.17 58.13C51.3 57.09 50.53 55.98 49.86 54.81C49.78 51.36 49.53 48.59 49.53 48.59C49.53 48.59 85.24 52 80.49 59.91Z" fill="#000000" fill-opacity="1.000000" fill-rule="nonzero"/>
		</g>
		<path id="path" d="M94.94 42.88C94.94 43.79 94.89 44.7 94.78 45.61C94.67 46.52 94.5 47.42 94.28 48.31C94.07 49.2 93.79 50.08 93.47 50.94C93.14 51.8 92.77 52.63 92.34 53.45C91.92 54.27 91.44 55.06 90.92 55.82C90.4 56.58 89.83 57.31 89.22 58.01C88.61 58.71 87.96 59.37 87.27 59.99C86.58 60.61 85.85 61.19 85.09 61.74C84.33 62.28 83.54 62.77 82.72 63.22C81.9 63.67 81.06 64.07 80.19 64.43C79.32 64.78 78.43 65.08 77.52 65.34C76.62 65.59 75.7 65.79 74.77 65.94C73.84 66.08 72.9 66.18 71.96 66.22C71.02 66.26 70.08 66.25 69.14 66.18C68.19 66.11 67.26 65.99 66.34 65.82C65.41 65.65 64.5 65.42 63.6 65.14C62.7 64.87 61.82 64.54 60.96 64.16C60.11 63.78 59.27 63.36 58.46 62.88C57.66 62.41 56.88 61.89 56.14 61.33C55.39 60.77 54.68 60.17 54.01 59.53C53.34 58.89 52.71 58.21 52.12 57.49C51.53 56.78 50.99 56.03 50.49 55.26C49.99 54.48 49.54 53.68 49.14 52.85C48.73 52.02 48.38 51.17 48.08 50.31C47.78 49.44 47.54 48.56 47.35 47.66C47.15 46.76 47.01 45.86 46.93 44.95C46.85 44.04 46.82 43.12 46.85 42.21C46.88 41.29 46.96 40.38 47.1 39.48C47.23 38.57 47.43 37.68 47.67 36.79C47.92 35.91 48.22 35.04 48.57 34.19C48.92 33.34 49.32 32.52 49.77 31.71C50.22 30.91 50.72 30.14 51.27 29.39C51.61 28.92 51.96 28.47 52.34 28.03C54.51 25.47 57.12 23.45 60.17 21.97C61.81 21.18 63.53 20.57 65.31 20.16C66.12 19.98 66.93 19.83 67.74 19.73C68.56 19.63 69.38 19.56 70.2 19.54C71.03 19.52 71.85 19.54 72.67 19.6C73.5 19.66 74.31 19.76 75.12 19.9C75.94 20.04 76.74 20.22 77.53 20.44C78.32 20.66 79.1 20.92 79.86 21.22C80.63 21.52 81.38 21.86 82.11 22.23C82.83 22.6 83.54 23.01 84.23 23.46C84.91 23.9 85.57 24.38 86.21 24.89C86.85 25.4 87.45 25.94 88.03 26.51C88.61 27.08 89.16 27.67 89.67 28.3C90.19 28.92 90.67 29.57 91.12 30.24C91.56 30.92 91.97 31.61 92.35 32.32C92.72 33.04 93.06 33.77 93.35 34.51C93.65 35.26 93.91 36.02 94.12 36.79C94.34 37.56 94.51 38.35 94.65 39.13C94.85 40.37 94.95 41.62 94.94 42.88Z" fill="#FFA2A2" fill-opacity="1.000000" fill-rule="nonzero"/>
		<path id="path" d="M104.44 138.88C104.08 140.75 104.53 144.16 105.21 147.63C105.24 147.78 105.27 147.93 105.3 148.08C105.33 148.24 105.38 148.47 105.42 148.66C105.73 150.15 106.07 151.63 106.41 152.97C106.74 154.32 107.04 155.47 107.3 156.41C107.68 157.83 107.95 158.72 107.95 158.72C107.95 158.72 107.98 159.6 108.03 160.99C108.05 161.79 108.08 162.77 108.11 163.86C108.11 164.17 108.13 164.49 108.14 164.82C108.15 165.39 108.17 165.99 108.18 166.6C108.18 166.8 108.18 167 108.19 167.2C108.19 167.86 108.22 168.53 108.23 169.2C108.25 170.12 108.26 171.04 108.26 171.93C108.26 172.27 108.26 172.61 108.26 172.94C108.26 173.79 108.26 174.61 108.26 175.36C108.23 177.49 108.14 179.1 107.96 179.57C107.89 179.73 107.83 179.9 107.78 180.08C107.53 180.94 107.35 181.81 107.24 182.69L106.76 182.31C105.84 181.57 104.93 180.81 104 180.08C102.46 178.83 100.83 177.69 99.11 176.67C98.99 176.61 98.87 176.54 98.75 176.48C98.44 176.3 98.11 176.13 97.78 175.97C97.11 175.64 96.41 175.34 95.7 175.08C92.43 173.87 88.92 173.43 85.37 173.5C83.95 174.03 83.03 174.41 83.03 174.41L81.23 174.93L80.93 175.02C78.97 175.6 76.23 176.42 75.24 176.76C73.64 177.31 59.75 180.12 59.75 180.12C58.48 180.45 57.19 180.68 55.88 180.81C53.5 181.46 51.08 181.95 48.62 182.28C42.99 182.98 37.45 182.55 32.01 180.98C31.84 180.99 31.68 180.99 31.52 180.97C31.62 180.97 31.72 180.95 31.81 180.93L31.46 180.83L30.99 180.69C30.19 180.44 29.41 180.18 28.63 179.89L28.15 179.72C27.4 179.43 26.66 179.13 25.93 178.8L25.46 178.6C24.7 178.25 23.96 177.89 23.24 177.51C22.98 177.38 22.72 177.24 22.47 177.1C21.7 176.69 20.94 176.25 20.2 175.79C20.07 174.75 20.01 174.06 20.01 174.06L18.9 168.71L18.85 168.44L18.05 164.58L18 164.31L16.27 155.92L16.21 155.65L15.42 151.8L15.36 151.52L13.61 143.14L13.56 142.87L12.76 139.01L12.71 138.74L10.97 130.34L10.91 130.07L10.12 126.23L10.06 125.95L9.75 124.44L9.28 122.15C9.28 122.15 7.76 120.05 6.06 117.57L5.87 117.29C5.39 116.6 4.89 115.87 4.41 115.16C4.24 114.93 4.09 114.7 3.93 114.47C3.7 114.12 3.47 113.78 3.25 113.45L3.09 113.23L3.06 113.18C0.62 109.51 2.25 107.91 2.25 107.91C2.25 107.91 3.28 106.56 4.6 104.78C4.67 104.69 4.74 104.6 4.81 104.5C5.37 103.73 6 102.89 6.61 102.05L7.08 101.39C7.26 101.15 7.44 100.9 7.61 100.66C7.68 100.57 7.74 100.48 7.8 100.38C9.11 98.55 10.19 96.95 10.41 96.39C10.76 95.49 12.96 92.85 15.16 90.53C16.89 88.69 18.61 87.06 19.39 86.67C21.14 85.77 21.87 82.86 21.87 82.86C21.87 82.86 25.68 81.56 26.2 80.56C26.72 79.56 33.94 75.06 33.94 75.06C33.94 75.06 36.86 73.23 38.05 72.13C38.22 71.98 38.36 71.82 38.48 71.64C38.89 70.92 41.58 70.33 42.67 70.12C42.95 70.06 43.13 70.03 43.13 70.03C43.57 69.25 44.12 68.55 44.78 67.93C45.23 67.55 45.78 66.23 46.25 64.95C46.76 63.56 47.15 62.22 47.15 62.22C47.98 59.51 49.63 60.31 49.63 60.31C49.63 60.68 49.66 61.05 49.74 61.41C50.42 64.72 54.17 66.09 56.13 67.64C58.3 69.34 61.7 73.75 64.39 74.65C66.61 75.4 69.19 78.21 70.01 79.15L70.07 79.22C70.2 79.37 70.27 79.46 70.27 79.46C70.27 79.46 71.79 79.38 72.72 79.37L73.06 79.37C73.25 79.35 73.42 79.28 73.57 79.16C74.5 78.56 75.87 76.77 76.47 76.36C77.19 75.86 77.91 67.74 77.91 67.74L77.95 67.72C80.52 66.55 83.28 78.26 83.28 78.26C83.28 78.26 88.13 79.67 88.54 80.67C88.62 80.87 88.99 81.22 89.54 81.65C92.05 83.51 94.7 85.15 97.5 86.56C97.57 86.59 97.63 86.62 97.69 86.64C97.74 86.67 97.8 86.7 97.86 86.72C97.97 86.77 98.07 86.82 98.16 86.86C98.32 86.93 98.46 86.98 98.59 87.02L98.76 87.08C99.17 87.21 99.55 87.4 99.89 87.65C100 87.72 100.1 87.8 100.2 87.88C100.58 88.19 100.94 88.54 101.26 88.91C101.31 88.97 101.35 89.03 101.4 89.08C101.61 89.34 101.81 89.6 101.96 89.84C102.22 90.21 102.46 90.59 102.68 90.99C102.68 90.99 106.91 98.01 108.25 98.8C109.59 99.6 110.42 107.73 110.42 107.73L105.88 124.05C105.88 124.05 105.67 128.18 105.27 132.39C105.05 134.75 104.77 137.15 104.44 138.88Z" fill="#CED7E7" fill-opacity="1.000000" fill-rule="nonzero"/>
		<path id="path" d="M70.27 79.96C70.27 79.96 67.23 81.56 64.85 81.71C64.54 81.72 64.23 81.71 63.92 81.66C61.44 81.29 57.78 79.3 57.78 79.3L62.07 74.74L67.28 77.25L69.19 78.98L70.27 79.96Z" fill="#63667E" fill-opacity="1.000000" fill-rule="nonzero"/>
		<g opacity="0.100000">
			<path id="path" d="M94.64 39.13C94.53 39.28 94.41 39.42 94.27 39.54C92.78 40.92 90.13 40.35 88.1 40.03C86.33 39.75 84.61 39.27 82.96 38.59C81.52 38 79.8 37.27 78.51 38.12C78.02 38.45 77.68 38.97 77.16 39.25C76.64 39.54 75.99 39.56 75.38 39.57C73.39 39.57 71.41 39.59 69.47 39.15C66.58 38.5 63.6 36.85 60.85 37.94C58.7 38.79 57.53 41.06 56.95 43.24C56.67 44.31 56.46 45.44 55.82 46.35C55.18 47.26 53.94 47.9 52.89 47.47C51.33 46.84 51.1 44.28 49.22 44.15C47.16 44.01 47.19 46.08 47.79 47.57C48.68 49.77 49.84 51.97 49.89 54.27C49.34 53.31 48.86 52.32 48.46 51.3C48.05 50.27 47.72 49.23 47.46 48.16C47.21 47.09 47.03 46.01 46.93 44.91C46.83 43.82 46.82 42.73 46.88 41.63C46.94 40.54 47.08 39.45 47.29 38.37C47.51 37.3 47.81 36.24 48.18 35.2C48.55 34.17 48.99 33.16 49.51 32.18C50.03 31.21 50.61 30.27 51.27 29.38C51.73 29.1 52.08 28.71 52.29 28.22C52.31 28.15 52.33 28.08 52.34 28.02C52.5 27.25 52.06 26.44 52.03 25.64C51.93 23.68 54.12 22.31 56.13 22.06C57.46 21.9 58.83 22.02 60.17 21.98C60.84 21.97 61.51 21.88 62.17 21.72C63.31 21.39 64.34 20.87 65.29 20.17C66.09 19.98 66.9 19.84 67.71 19.74C68.53 19.63 69.35 19.57 70.18 19.55C71 19.52 71.82 19.54 72.65 19.6C73.47 19.66 74.28 19.76 75.1 19.91C75.91 20.05 76.71 20.23 77.5 20.45C78.29 20.67 79.07 20.93 79.84 21.23C80.6 21.53 81.35 21.86 82.08 22.24C82.81 22.61 83.51 23.02 84.2 23.46C84.89 23.91 85.55 24.38 86.18 24.89C86.82 25.4 87.43 25.94 88 26.51C88.58 27.08 89.13 27.68 89.64 28.3C90.16 28.93 90.64 29.58 91.09 30.25C91.54 30.92 91.95 31.61 92.32 32.33C92.69 33.04 93.03 33.77 93.32 34.52C93.62 35.27 93.88 36.02 94.09 36.8C94.31 37.57 94.5 38.34 94.64 39.13Z" fill="#000000" fill-opacity="1.000000" fill-rule="nonzero"/>
		</g>
		<path id="path" d="M95.12 37.51C94.98 38.07 94.69 38.55 94.27 38.94C92.78 40.32 90.13 39.75 88.1 39.43C86.32 39.15 84.61 38.68 82.96 38C81.52 37.41 79.8 36.68 78.51 37.53C78.02 37.86 77.68 38.38 77.16 38.66C76.64 38.95 75.99 38.97 75.38 38.98C73.39 38.99 71.41 39 69.47 38.56C66.58 37.91 63.6 36.26 60.85 37.35C58.7 38.19 57.53 40.47 56.95 42.65C56.67 43.72 56.46 44.85 55.82 45.76C55.18 46.66 53.94 47.31 52.89 46.89C51.33 46.26 51.1 43.69 49.22 43.56C47.16 43.42 47.19 45.49 47.79 46.98C48.84 49.59 50.28 52.18 49.81 54.94C49.34 54.94 48.56 54.93 48.11 54.92C48.46 54.33 47.78 53.62 47.1 53.42C46.43 53.22 45.64 53.22 45.12 52.74C44.6 52.26 44.6 51.52 44.66 50.86C44.77 49.43 45.13 48.06 45.71 46.75C46.08 45.92 46.56 45.03 46.28 44.16C46.11 43.77 45.91 43.4 45.67 43.04C45.08 41.94 45.22 40.56 45.72 39.42C45.94 38.94 46.09 38.48 46.27 38.05C46.5 37.43 46.82 36.85 47.24 36.33C47.89 35.55 48.52 34.37 47.8 33.64C47.62 33.45 47.99 33.33 47.87 33.09C47.85 33.05 47.84 33 47.83 32.96C47.79 32.66 47.86 32.38 48.03 32.13C48.07 32.07 48.1 32.01 48.14 31.95C48.17 31.89 48.21 31.82 48.25 31.77C48.89 30.74 49.7 29.87 50.71 29.17C51.32 28.74 52.04 28.32 52.28 27.62C52.57 26.8 52.07 25.92 52.03 25.05C51.93 23.09 54.12 21.72 56.12 21.47C58.13 21.22 60.21 21.63 62.17 21.13C64.94 20.42 66.89 18.04 69.41 16.7C70.81 15.98 72.3 15.59 73.88 15.53C75.47 15.48 76.98 15.77 78.43 16.39C81.37 17.7 83.59 20.33 86.66 21.32C87.75 21.68 88.93 21.82 89.91 22.4C91.05 23.08 91.73 24.26 92.32 25.43C93.22 27.2 93.4 28.98 94.03 30.85C94.52 32.34 95.2 34.28 95.26 35.99C95.29 36.51 95.24 37.01 95.12 37.51Z" fill="#896363" fill-opacity="1.000000" fill-rule="nonzero"/>
		<g opacity="0.100000">
			<path id="path" d="M48.17 34.06C48.27 33.69 48.2 33.35 47.96 33.04C48.03 33.25 47.71 33.37 47.89 33.55C48.03 33.7 48.13 33.87 48.17 34.06Z" fill="#000000" fill-opacity="1.000000" fill-rule="nonzero"/>
			<path id="path" d="M47.95 32.4C47.92 32.5 47.9 32.6 47.89 32.7C47.95 32.61 48.02 32.52 47.95 32.4Z" fill="#000000" fill-opacity="1.000000" fill-rule="nonzero"/>
			<path id="path" d="M94.35 38.27C92.85 39.65 90.21 39.08 88.17 38.76C86.4 38.48 84.69 38 83.04 37.32C81.6 36.72 79.88 36 78.59 36.85C78.1 37.17 77.76 37.7 77.24 37.98C76.72 38.27 76.06 38.29 75.45 38.29C73.47 38.29 71.49 38.32 69.55 37.88C66.66 37.22 63.67 35.58 60.92 36.66C58.78 37.51 57.61 39.78 57.03 41.97C56.75 43.04 56.54 44.17 55.9 45.08C55.25 45.99 54.01 46.63 52.96 46.21C51.41 45.57 51.18 43.01 49.3 42.88C47.83 42.78 47.43 43.8 47.52 44.93C47.61 44.06 48.09 43.4 49.3 43.48C51.18 43.61 51.41 46.18 52.96 46.81C54.01 47.23 55.26 46.59 55.9 45.68C56.54 44.76 56.75 43.64 57.03 42.57C57.61 40.39 58.78 38.11 60.92 37.27C63.67 36.18 66.66 37.82 69.55 38.48C71.47 38.92 73.48 38.91 75.45 38.89C76.06 38.89 76.71 38.88 77.24 38.58C77.77 38.29 78.09 37.78 78.59 37.45C79.88 36.6 81.6 37.33 83.04 37.92C84.69 38.6 86.4 39.08 88.17 39.36C90.21 39.68 92.85 40.25 94.35 38.87C95.16 38.12 95.4 37.03 95.35 35.85C95.3 36.79 95.02 37.65 94.35 38.27Z" fill="#000000" fill-opacity="1.000000" fill-rule="nonzero"/>
			<path id="path" d="M52.13 24.55C52.11 24.69 52.1 24.82 52.11 24.96C52.14 25.53 52.36 26.11 52.43 26.67C52.54 25.98 52.21 25.27 52.13 24.55Z" fill="#000000" fill-opacity="1.000000" fill-rule="nonzero"/>
			<path id="path" d="M46.36 44.08C46.39 44.16 46.41 44.24 46.42 44.33C46.47 44.04 46.45 43.76 46.36 43.48C46.2 43.08 45.99 42.71 45.75 42.35C45.54 41.94 45.41 41.5 45.38 41.04C45.32 41.71 45.45 42.35 45.75 42.95C45.99 43.31 46.2 43.68 46.36 44.08Z" fill="#000000" fill-opacity="1.000000" fill-rule="nonzero"/>
			<path id="path" d="M49.88 54.26L48.22 54.23C48.31 54.44 48.29 54.64 48.17 54.83C48.64 54.83 49.42 54.85 49.87 54.86C49.95 54.39 49.98 53.91 49.96 53.43C49.95 53.71 49.93 53.98 49.88 54.26Z" fill="#000000" fill-opacity="1.000000" fill-rule="nonzero"/>
			<path id="path" d="M47.17 52.73C46.49 52.54 45.7 52.53 45.2 52.05C44.89 51.73 44.74 51.34 44.73 50.9C44.69 51.53 44.73 52.21 45.2 52.65C45.7 53.14 46.49 53.14 47.17 53.34C47.64 53.47 47.98 53.74 48.2 54.16C48.49 53.59 47.83 52.92 47.17 52.73Z" fill="#000000" fill-opacity="1.000000" fill-rule="nonzero"/>
		</g>
		<g opacity="0.100000">
			<path id="path" d="M98.75 176.48C98.43 176.3 98.1 176.13 97.78 175.97C97.1 175.64 96.4 175.34 95.7 175.08C92.42 173.87 88.91 173.43 85.36 173.5C83.94 174.03 83.02 174.41 83.02 174.41L81.22 174.93L80.92 175.02C80.9 174.83 80.87 174.64 80.85 174.44C80.83 174.25 80.81 174.06 80.79 173.87C80.15 168.03 79.66 162.03 79.66 162.03L79.66 156.85L79.66 156.25L79.62 140.99L79.34 135.95L79.2 133.73L79.18 133.3L79.13 132.43L79.1 131.92C79.04 131.75 78.98 131.59 78.94 131.42C78.92 131.35 78.9 131.27 78.88 131.19C78.81 130.92 78.74 130.56 78.66 130.17C78.14 127.64 77.49 123.37 77.45 122.51C77.4 121.35 76.37 114.44 76.37 114.44C76.26 110.63 72.96 103.46 72.13 102.11C71.3 100.76 70.38 92.64 70.69 92.2C70.85 91.97 70.95 90.58 71.02 89.31C71.02 89.16 71.03 89.02 71.04 88.88C71.08 87.88 71.1 87.04 71.1 87.04L74.35 86.42L75.22 86.26L75.28 86.24L75.31 86.3C75.41 86.47 75.7 87 76.04 87.71C76.08 87.78 76.12 87.86 76.16 87.94C76.17 87.98 76.19 88.02 76.21 88.06C76.85 89.41 77.58 91.18 77.55 92.2C77.5 94.01 79.62 98.37 79.62 98.37C79.82 99.37 84.31 109.34 84.31 109.34C84.31 109.34 87.98 119.11 87.77 120.71C87.56 122.32 89.53 132.94 89.53 132.94L91.54 143.87C92.52 146.02 93.81 150.98 93.81 150.98L94.3 153.79L94.39 154.33L95.7 161.83L96.34 165.51C96.34 165.51 96.61 167.46 97.02 169.64C97.05 169.83 97.09 170.03 97.13 170.23C97.38 171.66 97.74 173.07 98.2 174.46C98.43 175.12 98.61 175.79 98.75 176.48Z" fill="#000000" fill-opacity="1.000000" fill-rule="nonzero"/>
		</g>
		<path id="path" d="M99.1 176.67C98.98 176.61 98.86 176.54 98.75 176.48C98.43 176.3 98.1 176.13 97.78 175.97C97.1 175.64 96.4 175.34 95.7 175.08C92.42 173.87 88.91 173.43 85.36 173.5C83.94 174.03 83.02 174.41 83.02 174.41L81.22 174.93C81.19 174.74 81.17 174.55 81.15 174.35C81.13 174.16 81.11 174 81.1 173.83C80.46 168 79.96 162.03 79.96 162.03L79.96 156.8L79.96 156.2L79.93 140.97L79.64 136.17L79.59 135.17L79.55 134.5L79.5 133.61L79.45 132.7L79.41 132.05L79.41 131.91C79.41 131.89 79.41 131.88 79.39 131.86C79.33 131.71 79.27 131.48 79.2 131.2L79.16 131.06C79.15 131 79.13 130.93 79.12 130.86C78.59 128.51 77.8 123.45 77.76 122.5C77.71 121.34 76.68 114.43 76.68 114.43C76.57 110.62 73.28 103.46 72.45 102.11C71.62 100.75 70.69 92.63 71 92.2C71.18 91.92 71.28 90.25 71.35 88.87C71.35 88.76 71.35 88.65 71.35 88.55C71.39 87.7 71.4 87.04 71.4 87.04L74.42 86.46L75.18 86.31L75.3 86.29L75.59 86.24C75.59 86.24 75.96 86.9 76.4 87.82L76.46 87.94C77.11 89.29 77.88 91.14 77.86 92.2C77.8 94 79.92 98.36 79.92 98.36C80.13 99.36 84.62 109.33 84.62 109.33C84.62 109.33 88.28 119.1 88.08 120.71C87.87 122.31 89.83 132.94 89.83 132.94L91.84 143.86C92.82 146.01 94.11 150.97 94.11 150.97L94.57 153.59L94.66 154.12L95.69 160.05L96.64 165.5C96.64 165.5 96.92 167.45 97.31 169.63C97.35 169.83 97.39 170.03 97.43 170.23C97.68 171.67 98.04 173.09 98.5 174.47C98.75 175.19 98.95 175.93 99.1 176.67Z" fill="#63667E" fill-opacity="1.000000" fill-rule="nonzero"/>
		<path id="path" d="M96.54 35.31C96.54 35.31 95.46 36.67 94.48 36.67C93.5 36.67 89.69 36.51 87.71 35.91C85.72 35.31 76 34.86 76 34.86C76 34.86 62.22 34.91 61.75 34.46C61.29 34.01 53.19 31.6 52.36 31.75C52.19 31.79 51.77 31.86 51.2 31.95L50.55 32.05C49.58 32.2 48.35 32.38 47.24 32.51C45.86 32.66 44.64 32.74 44.26 32.61L44.26 31.45C44.26 31.45 45.86 29.2 45.96 28.55C46.06 27.9 47.41 18.52 50.91 15.17C51.64 13.82 52.57 12.63 53.71 11.59C54.86 10.56 56.14 9.73 57.57 9.11C62.32 7.11 67.07 5.41 67.07 5.41L67.9 5.29L70.58 4.91C70.66 4.83 70.75 4.75 70.84 4.69C71.58 4.14 73.84 2.94 76.77 5.52L77.29 6.32C77.29 6.32 86.32 8.37 90.5 15.54C94.67 22.7 94.88 29.72 95.19 32.92C95.19 32.92 94.99 33.83 95.4 34.18C95.55 34.31 95.69 34.44 95.83 34.58C95.87 34.62 95.9 34.66 95.94 34.69C96.06 34.81 96.17 34.93 96.26 35.03C96.27 35.04 96.28 35.05 96.28 35.06C96.31 35.08 96.33 35.11 96.36 35.13L96.54 35.31Z" fill="#FED253" fill-opacity="1.000000" fill-rule="nonzero"/>
		<g opacity="0.050000">
			<path id="path" d="M96.54 35.31C96.54 35.31 95.46 36.67 94.48 36.67C93.5 36.67 89.69 36.51 87.71 35.91C85.72 35.31 76 34.86 76 34.86C76 34.86 62.22 34.91 61.75 34.46C61.29 34.01 53.19 31.6 52.36 31.75C52.19 31.79 51.77 31.86 51.2 31.95L51.05 31.07L51.02 30.85C51.02 30.85 66.65 27.59 77.08 29.3C87.5 31.01 95.19 32.91 95.19 32.91C95.19 32.91 94.99 33.81 95.4 34.16C95.55 34.29 95.69 34.42 95.83 34.57C95.87 34.6 95.9 34.64 95.94 34.68C96.06 34.79 96.17 34.91 96.26 35.01C96.27 35.02 96.28 35.03 96.28 35.04C96.31 35.07 96.33 35.09 96.36 35.11L96.54 35.31Z" fill="#000000" fill-opacity="1.000000" fill-rule="nonzero"/>
		</g>
		<g opacity="0.100000">
			<path id="path" d="M95.12 37.51C93.19 37.66 89.63 37.2 88.08 36.98C87.63 36.92 87.2 36.84 86.76 36.75C85.09 36.39 79.96 35.41 76.84 35.86C73.07 36.41 62.44 35.41 62.44 35.41C62.44 35.41 55.89 34.11 53.25 33.06C52.29 32.67 50.67 32.55 49.06 32.74C48.65 32.79 48.25 32.86 47.84 32.95C45.65 33.46 43.8 34.6 44.12 36.56C44 36.42 43.88 36.27 43.78 36.11C43.64 34.32 44.21 33.26 45.01 32.63L45.19 32.56C46.16 32.29 47.15 32.08 48.15 31.94C48.3 31.92 48.47 31.9 48.63 31.88C51.45 31.51 55.53 31.42 58.97 33.11C58.97 33.11 62.17 34.56 64.34 34.56C66.51 34.56 84.15 34.71 88.28 35.86C89.11 36.1 89.94 36.27 90.79 36.38C92.32 36.57 93.81 36.43 95.27 35.97C95.3 36.49 95.25 37.01 95.12 37.51Z" fill="#000000" fill-opacity="1.000000" fill-rule="nonzero"/>
		</g>
		<g opacity="0.100000">
			<path id="path" d="M96.54 35.31C96.54 35.31 95.46 36.67 94.48 36.67C93.5 36.67 89.69 36.51 87.71 35.91C85.72 35.31 76 34.86 76 34.86C76 34.86 62.22 34.91 61.75 34.46C61.29 34.01 53.19 31.6 52.36 31.75C52.19 31.79 51.77 31.86 51.2 31.95L50.55 32.05C49.43 32.04 48.32 32.2 47.24 32.51C45.86 32.66 44.64 32.74 44.26 32.61L44.26 32.38C44.56 32.21 44.87 32.06 45.19 31.94C47.11 31.42 49.06 31.13 51.05 31.06C53.53 30.97 56.42 31.25 58.97 32.49C58.97 32.49 62.16 33.95 64.33 33.95C66.5 33.95 84.15 34.1 88.28 35.25C89.1 35.48 89.94 35.65 90.79 35.76C92.68 35.99 94.51 35.74 96.26 35C96.27 35.01 96.28 35.02 96.28 35.03C96.31 35.05 96.33 35.08 96.36 35.1L96.54 35.31Z" fill="#000000" fill-opacity="1.000000" fill-rule="nonzero"/>
		</g>
		<path id="path" d="M44.16 36.51C44.16 36.51 40.7 33.96 45.19 32.25C45.19 32.25 53.04 29.9 58.97 32.8C58.97 32.8 62.17 34.25 64.34 34.25C66.51 34.25 84.15 34.41 88.28 35.56C89.11 35.79 89.94 35.96 90.79 36.07C93.05 36.34 95.17 35.94 97.16 34.9C97.45 34.74 97.7 34.67 97.78 34.76C98.04 35.06 97.83 36.81 95.56 37.16C93.79 37.44 89.76 36.92 88.07 36.68C87.63 36.61 87.2 36.53 86.76 36.44C85.09 36.09 79.96 35.1 76.83 35.56C73.06 36.11 62.43 35.11 62.43 35.11C62.43 35.11 55.88 33.81 53.24 32.75C50.61 31.7 43.18 32.61 44.16 36.51Z" fill="#FED253" fill-opacity="1.000000" fill-rule="nonzero"/>
		<g opacity="0.100000">
			<path id="path" d="M73.32 9.65C73.03 9.25 69.39 6.42 67.9 5.27L70.58 4.89C70.67 4.81 70.75 4.74 70.85 4.67C72.79 6.66 73.32 9.65 73.32 9.65Z" fill="#000000" fill-opacity="1.000000" fill-rule="nonzero"/>
		</g>
		<g opacity="0.100000">
			<path id="polygon" d="M61.5 24.84L60.31 26.54L64.85 26.39L64.96 24.49L61.5 24.84Z" fill="#000000" fill-opacity="1.000000" fill-rule="nonzero"/>
		</g>
		<g opacity="0.100000">
			<path id="polygon" d="M89.21 26.89L89.73 28.45L92.62 28.9L91.38 27.04L89.21 26.89Z" fill="#000000" fill-opacity="1.000000" fill-rule="nonzero"/>
		</g>
		<g opacity="0.100000">
			<path id="path" d="M39.57 79.01C39.88 79.51 50.04 92.5 52.73 92.14C55.41 91.78 39.57 79.01 39.57 79.01Z" fill="#000000" fill-opacity="1.000000" fill-rule="nonzero"/>
		</g>
		<g opacity="0.100000">
			<path id="path" d="M73.63 90.88C73.63 90.88 76.11 93.18 75.74 94.08C75.38 94.98 73.63 90.88 73.63 90.88Z" fill="#000000" fill-opacity="1.000000" fill-rule="nonzero"/>
		</g>
		<g opacity="0.100000">
			<path id="path" d="M46.59 106.71C46.59 106.71 44.42 116.58 45.55 116.9C46.69 117.21 46.59 106.71 46.59 106.71Z" fill="#000000" fill-opacity="1.000000" fill-rule="nonzero"/>
		</g>
		<g opacity="0.100000">
			<path id="path" d="M74.45 145.04C74.81 146.05 77.81 152.56 78.48 152.91C79.15 153.26 74.45 145.04 74.45 145.04Z" fill="#000000" fill-opacity="1.000000" fill-rule="nonzero"/>
		</g>
		<g opacity="0.100000">
			<path id="path" d="M109.24 118.29C109.13 118.64 106.55 120.69 107.12 121.44C107.69 122.2 109.24 118.29 109.24 118.29Z" fill="#000000" fill-opacity="1.000000" fill-rule="nonzero"/>
		</g>
		<g opacity="0.100000">
			<path id="path" d="M89.21 136.57C89.16 136.83 88.64 142.08 89.63 143.09C90.61 144.1 89.21 136.57 89.21 136.57Z" fill="#000000" fill-opacity="1.000000" fill-rule="nonzero"/>
		</g>
		<g opacity="0.100000">
			<path id="path" d="M115.66 163.86C114.91 164.26 114.13 164.65 113.35 165.03C112.5 165.43 111.64 165.81 110.78 166.17C110.43 166.32 110.09 166.46 109.74 166.6C109.22 166.81 108.71 167.01 108.19 167.2C106.64 167.79 105.15 168.3 103.82 168.73C103.3 168.9 102.81 169.06 102.35 169.2C100.04 169.91 98.5 170.3 98.5 170.3C98.15 170.23 97.79 170.2 97.43 170.21C97.33 170.21 97.23 170.21 97.13 170.21C96.65 170.25 96.17 170.31 95.7 170.39C92.53 170.94 88.06 172.49 85.36 173.5C83.94 174.02 83.02 174.4 83.02 174.4L81.22 174.93L80.92 175.01C78.96 175.59 76.22 176.41 75.23 176.75C73.63 177.3 59.75 180.11 59.75 180.11C58.48 180.45 57.18 180.68 55.87 180.8C52.64 181.09 49.41 181.16 46.17 181.01C42.92 181.22 37.67 180.52 34.61 180.05L34.12 179.98C32.94 179.79 32.19 179.66 32.19 179.66L32.58 179.13L40.72 168.22L40.77 168.16L48.35 158L48.64 157.64L49.33 156.71C49.33 156.71 49.74 156.16 51.33 156.13C51.52 156.13 51.73 156.13 51.95 156.13C53.29 156.23 54.6 156.49 55.88 156.91L56.25 157.01C61.74 158.54 70.23 158.16 70.23 158.16C70.23 158.16 75.51 157.33 79.66 156.84L79.97 156.8C81.33 156.61 82.69 156.5 84.06 156.45C86.59 156.5 92.06 155.2 92.06 155.2C93.24 154.96 93.73 154.75 94.4 154.29C94.48 154.23 94.58 154.16 94.68 154.09C94.96 153.89 95.29 153.63 95.71 153.32C96.47 152.75 97.55 151.98 99.24 150.89C99.39 150.8 99.54 150.7 99.71 150.62C99.88 150.53 100.09 150.41 100.29 150.31C101.94 149.56 103.65 149 105.43 148.66C106.91 148.35 108.4 148.15 109.9 148.06L110.13 148.06C114.38 147.84 118.72 148.55 121.26 150.87C121.71 151.28 122.09 151.74 122.41 152.25C122.57 152.49 122.71 152.74 122.83 153C123.06 153.49 123.23 154 123.34 154.54C123.36 154.64 123.38 154.73 123.39 154.83C123.39 154.86 123.39 154.89 123.39 154.92C123.39 155 123.41 155.08 123.41 155.16C123.64 158.46 120.12 161.43 115.66 163.86Z" fill="#000000" fill-opacity="1.000000" fill-rule="nonzero"/>
		</g>
		<path id="path" d="M32.19 179.07C32.19 179.07 41.37 180.72 46.17 180.42C46.17 180.42 55 180.87 59.75 179.52C59.75 179.52 73.64 176.71 75.23 176.16C76.82 175.61 83.02 173.8 83.02 173.8C83.02 173.8 95.1 168.89 98.5 169.69C98.5 169.69 125.24 162.98 123.32 153.91C121.41 144.84 104.54 146.9 99.23 150.3C93.91 153.71 94.69 154.06 92.06 154.61C92.06 154.61 86.58 155.92 84.06 155.87C81.53 155.82 70.22 157.57 70.22 157.57C70.22 157.57 61.35 157.97 55.88 156.32C50.41 154.66 49.32 156.12 49.32 156.12L32.19 179.07Z" fill="#FFA2A2" fill-opacity="1.000000" fill-rule="nonzero"/>
		<g opacity="0.100000">
			<path id="path" d="M52.11 155.53C52.11 155.54 52.11 155.55 52.11 155.56C52.09 155.77 52.03 155.96 51.94 156.15C50.86 158.75 44.68 165.74 44.68 165.74C44.39 166.57 44.05 167.38 43.66 168.17C42.8 169.85 41.83 171.46 40.72 173C39.09 175.3 37.31 177.49 35.39 179.57C35.14 179.74 34.87 179.91 34.61 180.05C33.94 180.44 32.94 180.92 32 180.97C31.84 180.98 31.68 180.98 31.52 180.96C31.61 180.96 31.71 180.94 31.8 180.92L31.45 180.82L30.98 180.68C30.19 180.44 29.4 180.17 28.62 179.88L28.14 179.71C27.39 179.42 26.65 179.12 25.93 178.8L25.45 178.59C24.7 178.25 23.96 177.89 23.23 177.51C22.97 177.37 22.71 177.23 22.46 177.1C21.69 176.68 20.93 176.24 20.19 175.78C19.4 175.29 18.63 174.79 17.88 174.26C17.32 173.24 16.85 172.33 16.59 171.84C16.13 170.94 16.09 169.64 16.14 168.7C16.14 168.61 16.14 168.52 16.16 168.43C16.21 167.84 16.28 167.43 16.28 167.43C15.86 166.89 15.48 166.32 15.15 165.72C14.95 165.41 14.85 165.09 14.83 164.73C14.84 164.59 14.83 164.45 14.79 164.31C14.57 163.44 13.64 161.95 12.77 161.01C12.12 160.32 12.08 157.73 12.14 155.9C12.18 154.8 12.25 153.99 12.25 153.99C12.12 153.91 12.03 153.8 11.98 153.66C11.75 153.05 11.6 152.43 11.52 151.79C11.52 151.7 11.5 151.61 11.48 151.51C11.3 150.25 11.22 148.98 11.22 148.98C9.12 147.5 8.12 145.18 7.66 143.12L7.6 142.84C7.34 141.57 7.24 140.29 7.28 138.99C7.28 138.87 7.28 138.77 7.28 138.72C7.28 138.66 7.28 138.65 7.28 138.65C7.28 138.65 7.55 132.68 8.33 130.35C8.36 130.25 8.4 130.16 8.43 130.08C8.49 129.93 8.56 129.79 8.65 129.66C8.94 129.3 9.14 128.61 9.3 127.79C9.42 127.22 9.52 126.59 9.59 125.96C9.65 125.44 9.7 124.92 9.74 124.44C9.85 123.15 9.89 122.15 9.89 122.15L9.36 119.64C9.22 118.95 9.11 118.26 9.03 117.57C9.03 117.48 9.01 117.39 9 117.29C8.86 116.02 8.84 114.74 8.93 113.45C8.93 113.36 8.93 113.27 8.94 113.18C9.17 110.24 9.94 107.44 11.26 104.78L11.4 104.51C11.59 104.14 11.79 103.78 11.99 103.43C12.14 103.16 12.3 102.91 12.47 102.65C12.9 101.96 13.38 101.3 13.89 100.67C13.96 100.57 14.04 100.48 14.11 100.39C15 99.32 15.98 98.34 17.05 97.45C19.91 95.06 22.54 94.02 24.93 93.94C35.37 93.59 41.22 111.51 42.17 114.65C42.26 114.95 42.3 115.12 42.3 115.12C42.3 115.12 46.53 119.23 45.29 121.03C45.05 121.43 44.91 121.87 44.87 122.33C44.52 124.76 45.5 128.75 45.5 128.75C45.5 128.75 45.85 129.85 46.86 132.49L47.15 133.26C47.79 134.91 47.93 137.68 47.57 140.16C47.22 142.54 46.4 144.64 45.09 145.18C42.4 146.28 43.13 147.39 43.75 148.29C44.11 148.94 44.42 149.62 44.66 150.32C45.05 151.34 45.41 152.41 45.55 152.82C45.59 152.94 45.61 153 45.61 153C45.98 152.86 46.37 152.76 46.77 152.7C47.28 152.63 47.78 152.68 47.88 153.1C47.93 153.33 48.22 153.59 48.63 153.86C49.85 154.67 52.11 155.53 52.11 155.53Z" fill="#000000" fill-opacity="1.000000" fill-rule="nonzero"/>
		</g>
		<path id="path" d="M51.49 155.53C51.47 155.74 51.42 155.94 51.33 156.13C50.24 158.73 44.06 165.74 44.06 165.74C43.77 166.57 43.43 167.38 43.04 168.17C42.35 169.52 41.58 170.83 40.72 172.09C38.94 174.7 36.98 177.17 34.83 179.5L34.77 179.57C34.77 179.57 34.52 179.75 34.12 179.99C33.41 180.43 32.64 180.74 31.81 180.93L31.46 180.83L30.99 180.69C30.2 180.45 29.41 180.18 28.63 179.89L28.16 179.72C27.4 179.43 26.66 179.13 25.94 178.8L25.46 178.6C24.71 178.25 23.97 177.89 23.24 177.51C22.98 177.38 22.72 177.24 22.47 177.1C21.7 176.69 20.94 176.25 20.2 175.79C19.42 175.3 18.65 174.79 17.89 174.27C17.55 174.02 17.2 173.78 16.86 173.52C16.48 172.82 16.17 172.22 15.98 171.85C15.52 170.95 15.48 169.65 15.54 168.71C15.54 168.62 15.54 168.52 15.55 168.44C15.6 167.85 15.67 167.44 15.67 167.44C15.67 167.44 15.44 167.14 15.17 166.74C15.01 166.51 14.84 166.25 14.69 165.99C14.41 165.51 14.19 165.02 14.23 164.74C14.24 164.69 14.24 164.64 14.23 164.59C14.23 164.5 14.21 164.41 14.19 164.32C13.97 163.45 13.03 161.95 12.16 161.02C11.52 160.32 11.48 157.74 11.53 155.91C11.53 155.82 11.53 155.73 11.53 155.64C11.57 154.69 11.63 154 11.63 154C11.31 153.87 11.07 152.87 10.91 151.8L10.87 151.53C10.68 150.26 10.6 148.99 10.6 148.99C8.5 147.51 7.51 145.19 7.04 143.13C6.72 141.68 6.6 140.21 6.68 138.73C6.68 138.68 6.68 138.66 6.68 138.66C6.68 138.66 6.92 132.66 7.7 130.33C7.73 130.23 7.76 130.14 7.8 130.06C7.86 129.91 7.95 129.78 8.05 129.65C8.48 129.07 8.77 127.67 8.95 126.23L8.99 125.96C9.22 124.03 9.29 122.14 9.29 122.14L8.76 119.63C8.62 118.94 8.51 118.25 8.43 117.56C8.41 117.47 8.41 117.38 8.39 117.29C8.26 116.01 8.24 114.73 8.32 113.45C8.32 113.35 8.32 113.26 8.34 113.17C8.56 110.23 9.34 107.43 10.66 104.78C10.7 104.68 10.75 104.59 10.8 104.5C11.16 103.78 11.57 103.09 12.01 102.42C12.16 102.19 12.32 101.95 12.48 101.73C12.74 101.36 13.01 101 13.29 100.66L13.52 100.38C14.4 99.32 15.37 98.34 16.43 97.45C19.55 94.86 22.38 93.85 24.94 93.94C34.99 94.29 40.63 111.57 41.55 114.65C41.64 114.95 41.69 115.12 41.69 115.12C41.69 115.12 45.92 119.23 44.68 121.03C44.44 121.43 44.3 121.87 44.26 122.33C43.91 124.76 44.89 128.75 44.89 128.75C44.89 128.75 45.24 129.85 46.25 132.49C46.34 132.73 46.44 132.99 46.53 133.26C47.16 134.91 47.31 137.68 46.95 140.16C46.6 142.54 45.78 144.64 44.47 145.18C41.78 146.28 42.5 147.39 43.12 148.29C43.49 148.94 43.8 149.62 44.04 150.32C44.53 151.62 44.98 153 44.98 153C45.17 152.93 45.36 152.87 45.55 152.82C45.95 152.69 46.36 152.65 46.77 152.7C47.04 152.72 47.2 152.85 47.26 153.1C47.33 153.43 47.92 153.84 48.63 154.23C49.56 154.72 50.51 155.15 51.49 155.53Z" fill="#CED7E7" fill-opacity="1.000000" fill-rule="nonzero"/>
		<g opacity="0.100000">
			<path id="path" d="M14.17 129.06C15.16 129.01 25.68 125.05 27.85 126.4C30.02 127.76 43.44 136.52 43.44 136.52C43.44 136.52 35.03 125.85 27.71 123.35C20.38 120.84 14.17 129.06 14.17 129.06Z" fill="#000000" fill-opacity="1.000000" fill-rule="nonzero"/>
		</g>
		<g opacity="0.100000">
			<path id="path" d="M29.31 145.19C29.31 145.19 39.84 147.25 41.44 148.65L29.31 145.19Z" fill="#000000" fill-opacity="1.000000" fill-rule="nonzero"/>
		</g>
		<g opacity="0.100000">
			<path id="path" d="M27.28 160.48C27.13 160.63 23.31 168.95 23.62 168.95C23.93 168.95 27.18 163.99 27.18 163.99L27.28 160.48Z" fill="#000000" fill-opacity="1.000000" fill-rule="nonzero"/>
		</g>
		<g opacity="0.100000">
			<path id="path" d="M34.46 150.5C34.46 150.5 31.36 151.56 31.72 151.66C32.08 151.76 34.35 150.96 34.46 150.5Z" fill="#000000" fill-opacity="1.000000" fill-rule="nonzero"/>
		</g>
		<g opacity="0.100000">
			<path id="path" d="M31.36 163.08C31.88 164.13 33.53 167.29 33.89 166.79C34.25 166.29 31.36 163.08 31.36 163.08Z" fill="#000000" fill-opacity="1.000000" fill-rule="nonzero"/>
		</g>
		<g opacity="0.100000">
			<path id="path" d="M70.01 79.74L69.57 80.36C69.57 80.36 66.05 77.95 64.61 76.75C63.17 75.55 59.76 81.06 57.08 82.56C54.39 84.06 49.85 84.46 49.85 84.46C49.85 84.46 46.34 81.06 46.45 80.06C46.56 79.06 44.8 78.76 44.7 78.06C44.59 77.36 43.97 75.35 43.15 74.35C42.71 73.82 42.65 72.17 42.69 70.73C42.97 70.67 43.15 70.64 43.15 70.64C43.59 69.86 44.14 69.16 44.8 68.54C45.73 67.74 47.17 62.82 47.17 62.82C48 60.12 49.65 60.92 49.65 60.92C49.65 65.03 53.99 66.53 56.15 68.24C58.32 69.94 61.72 74.35 64.41 75.25C66.61 75.98 69.19 78.8 70.01 79.74Z" fill="#000000" fill-opacity="1.000000" fill-rule="nonzero"/>
		</g>
		<path id="path" d="M70.01 79.14L69.57 79.76C69.57 79.76 66.04 77.36 64.6 76.15C63.15 74.94 59.75 80.45 57.06 81.96C54.38 83.46 49.84 83.86 49.84 83.86C49.84 83.86 46.33 80.45 46.44 79.46C46.54 78.47 44.79 78.16 44.68 77.45C44.58 76.75 43.96 74.75 43.13 73.75C42.7 73.22 42.63 71.56 42.67 70.12L43.13 70.04C43.58 69.26 44.13 68.56 44.79 67.94C45.72 67.13 47.16 62.22 47.16 62.22C47.98 59.52 49.63 60.32 49.63 60.32C49.63 64.43 53.97 65.93 56.14 67.64C58.3 69.34 61.71 73.75 64.39 74.65C66.61 75.39 69.19 78.2 70.01 79.14Z" fill="#CED7E7" fill-opacity="1.000000" fill-rule="nonzero"/>
		<g opacity="0.100000">
			<path id="path" d="M70.27 79.96C70.27 79.96 67.23 81.56 64.85 81.71C64.54 81.72 64.23 81.71 63.92 81.66C63.92 81.66 66.55 79.76 68.98 79.37L70.27 79.96Z" fill="#000000" fill-opacity="1.000000" fill-rule="nonzero"/>
		</g>
		<g opacity="0.100000">
			<path id="path" d="M76.47 88.12C76.47 88.12 72.63 86.67 71.36 88.85C71.41 87.85 71.42 87.02 71.42 87.02L75.6 86.22C75.6 86.22 76.01 86.94 76.48 87.92C76.47 88.05 76.47 88.12 76.47 88.12Z" fill="#000000" fill-opacity="1.000000" fill-rule="nonzero"/>
		</g>
		<path id="path" d="M63.92 81.66C63.92 81.66 68.52 78.98 70.73 79.2C73.04 79.44 77.53 79.6 77.53 79.6C77.53 79.6 75.98 83.01 76.19 83.71C76.4 84.41 76.45 87.82 76.45 87.82C76.45 87.82 71.81 86.07 71.03 89.33C71.03 89.33 68.5 85.67 66.8 84.56C65.66 83.76 64.7 82.8 63.92 81.66Z" fill="#63667E" fill-opacity="1.000000" fill-rule="nonzero"/>
		<g opacity="0.100000">
			<path id="path" d="M89.88 84.77C88.54 84.77 83.79 81.86 82.76 79.96C81.73 78.05 80.28 80.15 78.94 80.86C78.09 81.31 74.72 80.37 72.91 79.68C73.83 79.07 75.87 77.36 76.47 76.95C77.19 76.45 77.91 68.33 77.91 68.33C80.49 67.03 83.28 78.85 83.28 78.85C83.28 78.85 88.13 80.26 88.54 81.26C88.62 81.46 88.99 81.81 89.54 82.24C90.1 83.62 90.42 84.77 89.88 84.77Z" fill="#000000" fill-opacity="1.000000" fill-rule="nonzero"/>
		</g>
		<path id="path" d="M89.88 84.16C88.54 84.16 83.79 81.26 82.76 79.36C81.73 77.45 80.28 79.55 78.94 80.26C78.09 80.71 75.39 79.83 73.57 79.16C74.5 78.55 75.87 76.77 76.47 76.35C77.19 75.85 77.91 67.74 77.91 67.74C80.49 66.43 83.28 78.26 83.28 78.26C83.28 78.26 88.13 79.66 88.54 80.66C88.62 80.86 88.99 81.21 89.54 81.64C90.1 83.02 90.42 84.16 89.88 84.16Z" fill="#CED7E7" fill-opacity="1.000000" fill-rule="nonzero"/>
		<path id="path" d="M108.22 171.96L153.1 135.63C153.57 135.25 154.1 135.06 154.71 135.08L171.45 135.5C171.45 135.5 172.61 136.33 170.91 138.13L128.57 171.87C128.1 172.24 127.56 172.44 126.96 172.45L108.65 173.04C108.35 173.05 108.14 172.92 108.04 172.65C107.93 172.38 107.99 172.15 108.22 171.96Z" fill="#FAD427" fill-opacity="1.000000" fill-rule="nonzero"/>
		<path id="path" d="M129.93 167.49C129.93 167.49 139.74 181.12 150.63 168.44C161.52 155.76 158.37 149.1 155.07 148.75C151.76 148.4 133.18 162.28 129.93 167.49Z" fill="#FFA2A2" fill-opacity="1.000000" fill-rule="nonzero"/>
		<g opacity="0.100000">
			<path id="path" d="M196.05 15.04C196.05 15.04 208.69 -8.77 223.62 3.51C223.62 3.51 226.88 4.67 226.64 8.01C226.64 8.01 225.38 7.34 224.38 9.9C224.01 10.81 223.54 11.67 222.96 12.47C222.18 13.58 221.13 14.35 219.82 14.78C219.82 14.78 213.12 19.65 200.7 15.89C200.7 15.89 197.19 16.38 196.62 15.96L200.7 13.06C200.7 13.06 202.78 16.05 205.81 16.39C205.81 16.39 200.7 13.28 201.29 12.6C201.41 12.47 203.52 11.16 203.52 11.16C203.52 11.16 207.15 16.34 211.85 16.72C211.85 16.72 205.26 13.81 204.32 10.67L207.63 8.88C207.63 8.88 211.18 14.53 216.52 15.17C216.52 15.17 209.74 11.89 208.38 8.53L211.88 7.21C211.88 7.21 215.46 12.66 219.9 13.15C219.9 13.15 212.47 8.6 212.7 6.95C212.7 6.95 215.99 5.92 217 6.06C217 6.06 219.66 9.91 222.27 9.98C222.27 9.98 217.64 6.42 217.94 5.88C217.94 5.88 222.6 5.64 225.03 6.74C225.03 6.74 221.57 4.87 217.94 5.17C217.94 5.17 219.58 3.3 221.73 2.88C221.73 2.88 219.16 1.86 216.81 5.24C216.81 5.24 213.19 5.56 212.75 5.95C212.75 5.95 214.58 2.3 216.83 0.74C216.83 0.74 213.47 1.32 211.81 6.27L208.26 7.53C208.26 7.53 210.42 2.57 212.32 1.04C212.32 1.04 208.98 2.14 207.39 7.92L204.13 9.65C204.13 9.65 205.65 5.24 207.39 3.09C207.39 3.09 204.52 4.76 203.21 10.17L201.17 11.57C201.17 11.57 202.34 8.37 202.76 7.48C203.18 6.59 202.97 6.41 202.97 6.41C201.52 8.07 200.63 9.97 200.3 12.13C200.3 12.13 196.29 15.26 196.05 15.04Z" fill="#FAD427" fill-opacity="1.000000" fill-rule="nonzero"/>
		</g>
		<g opacity="0.100000">
			<path id="path" d="M248.31 27.78C248.31 27.78 254.02 17.02 260.76 22.56C260.76 22.56 262.24 23.09 262.13 24.6C262.13 24.6 261.56 24.3 261.11 25.45C260.94 25.86 260.73 26.25 260.47 26.61C260.12 27.11 259.65 27.46 259.06 27.65C259.06 27.65 256.02 29.86 250.41 28.16C250.41 28.16 248.83 28.38 248.57 28.19L250.42 26.88C250.42 26.88 251.35 28.23 252.72 28.38C252.72 28.38 250.42 26.98 250.68 26.67C250.73 26.61 251.69 26.02 251.69 26.02C251.69 26.02 253.33 28.36 255.45 28.54C255.45 28.54 252.48 27.22 252.05 25.78L253.55 24.98C253.55 24.98 255.15 27.53 257.57 27.82C257.57 27.82 254.51 26.34 253.88 24.82L255.46 24.22C255.46 24.22 257.08 26.69 259.09 26.91C259.09 26.91 255.73 24.85 255.83 24.11C255.83 24.11 257.32 23.64 257.78 23.7C257.78 23.7 258.98 25.45 260.16 25.47C260.16 25.47 258.06 23.87 258.2 23.62C258.2 23.62 260.31 23.52 261.4 24.01C261.4 24.01 259.84 23.16 258.2 23.3C258.66 22.79 259.23 22.45 259.9 22.27C259.9 22.27 258.74 21.81 257.68 23.33C257.68 23.33 256.05 23.48 255.85 23.65C255.85 23.65 256.67 22 257.69 21.3C257.69 21.3 256.17 21.56 255.42 23.8L253.84 24.38C253.84 24.38 254.81 22.14 255.67 21.45C255.67 21.45 254.16 21.95 253.44 24.56L251.97 25.33C251.97 25.33 252.65 23.34 253.44 22.37C253.44 22.37 252.14 23.12 251.55 25.57L250.63 26.2C250.63 26.2 251.16 24.75 251.35 24.35C251.54 23.95 251.44 23.87 251.44 23.87C250.79 24.62 250.39 25.48 250.24 26.46C250.24 26.46 248.41 27.87 248.31 27.78Z" fill="#FAD427" fill-opacity="1.000000" fill-rule="nonzero"/>
		</g>
		<g opacity="0.100000">
			<path id="path" d="M186.44 40.29C186.44 40.29 192.15 29.53 198.92 35.08C198.92 35.08 200.39 35.6 200.28 37.12C200.28 37.12 199.71 36.81 199.26 37.97C199.09 38.38 198.88 38.77 198.62 39.13C198.27 39.63 197.79 39.98 197.19 40.17C197.19 40.17 194.16 42.37 188.55 40.68C188.55 40.68 186.97 40.9 186.71 40.71L188.56 39.4C188.56 39.4 189.49 40.75 190.86 40.9C190.86 40.9 188.56 39.5 188.82 39.19C188.87 39.13 189.83 38.54 189.83 38.54C189.83 38.54 191.47 40.88 193.59 41.05C193.59 41.05 190.62 39.73 190.19 38.3L191.69 37.5C191.69 37.5 193.29 40.05 195.71 40.34C195.71 40.34 192.64 38.86 192.02 37.34L193.6 36.74C193.6 36.74 195.22 39.2 197.23 39.43C197.23 39.43 193.87 37.37 193.97 36.63C193.97 36.63 195.46 36.16 195.92 36.22C195.92 36.22 197.12 37.96 198.3 38C198.3 38 196.21 36.39 196.34 36.14C196.34 36.14 198.44 36.04 199.54 36.53C199.54 36.53 197.98 35.68 196.34 35.82C196.8 35.31 197.37 34.97 198.04 34.79C198.04 34.79 196.89 34.32 195.83 35.85C195.83 35.85 194.19 36 193.99 36.17C193.99 36.17 194.81 34.52 195.83 33.82C195.83 33.82 194.31 34.08 193.57 36.32L191.96 36.9C191.96 36.9 192.93 34.66 193.79 33.97C193.79 33.97 192.29 34.46 191.57 37.07L190.09 37.85C190.09 37.85 190.78 35.86 191.56 34.89C191.56 34.89 190.27 35.64 189.68 38.09L188.75 38.72C188.75 38.72 189.28 37.27 189.47 36.87C189.66 36.47 189.57 36.38 189.57 36.38C188.91 37.14 188.51 38 188.36 38.98C188.36 38.98 186.54 40.39 186.44 40.29Z" fill="#FAD427" fill-opacity="1.000000" fill-rule="nonzero"/>
		</g>
	</g>
</svg>
